<svg fill="#000000" xmlns="http://www.w3.org/2000/svg"  viewBox="0 0 50 50" width="50px" height="50px"><circle cx="27" cy="16" r="4"/><path d="M41,4C35.317,4,14.828,4,9,4C6.24,4,4,6.24,4,9v9.54v20.54V41c0,2.76,2.24,5,5,5h7.36h2.05H40 c0.588-0.004,1.435,0.034,2-0.101V45.9c2.268-0.452,4.012-2.586,4-4.9v-4.25V14.52V9C46,6.24,43.76,4,41,4z M33,21 c0.55,0,1,0.45,1,1s-0.45,1-1,1s-1-0.45-1-1S32.45,21,33,21z M27,22c-3.31,0-6-2.69-6-6s2.69-6,6-6s6,2.69,6,6S30.31,22,27,22z M19,20c0.55,0,1,0.45,1,1s-0.45,1-1,1s-1-0.45-1-1S18.45,20,19,20z M17,18c-0.55,0-1-0.45-1-1s0.45-1,1-1s1,0.45,1,1 S17.55,18,17,18z M44,37.506c-0.645,0.223-1.311,0.436-2,0.634v5.676C41.686,43.928,41.352,44,41,44h-1v-5.3 C34.33,40.16,27.57,41,21,41c-1.22,0-2.48-0.05-3.77-0.13L17.95,44h-2.051l-0.759-3.29c-3.206-0.279-6.417-0.747-9.14-1.244V17.482 c2.24-1.092,4.543-1.944,5.9-2.412L10.171,6h2.04l3.649,19.15c9.45,1.82,16.67,1.63,23.06-4.49L36.131,6h2.03l2.06,10.83L44,15.319 V37.506z"/><circle cx="16" cy="36" r="1"/><circle cx="34" cy="35" r="1"/><circle cx="38" cy="27" r="1"/><circle cx="19" cy="31" r="1"/><circle cx="21.5" cy="34.5" r="1.5"/><path d="M34.718,29.939c-0.145-0.138-0.292-0.248-0.441-0.346c0.507-0.797,1.078-1.555,0.44-1.555c-1.01,0-1.01,0.949-2.02,1.09 v0.001c-0.102-0.001-0.205,0.005-0.307,0.013c0.28-0.514,0.498-0.95,0.307-1.103c-0.401-0.322-1.616,1.488-2.619,1.662 c-0.528,0.159-1.012,0.28-1.42,0.236c-1.001-0.107-2.452-0.486-3.463-0.175c-0.005,0.001-0.007-0.001-0.012-0.001 c-0.903,0.122-1.585-0.783-2.113-0.276c-0.301,0.289,0.428,1.007,0.985,1.591c-0.353,0.949-1.332,1.768,0.563,2.659 c1.277,0.6,2.02,0,4.04,0c1.01,0,3.03-0.949,4.04-1.898C33.708,30.888,35.728,30.888,34.718,29.939z"/></svg>